<svg width="581" height="202" viewBox="0 0 581 202" fill="none" xmlns="http://www.w3.org/2000/svg">
<g clip-path="url(#clip0_7357_7671)">
<path fill-rule="evenodd" clip-rule="evenodd" d="M168.334 135.424V41.8224C168.334 38.5409 167.687 35.2914 166.431 32.2596C165.176 29.2278 163.335 26.473 161.015 24.1526C158.694 21.8322 155.939 19.9915 152.908 18.7357C149.876 17.4799 146.626 16.8335 143.345 16.8335H118.609V16.8337H25.0084C21.7253 16.8319 18.4742 17.4769 15.4405 18.7318C12.4068 19.9868 9.65004 21.8271 7.32769 24.1476C5.00534 26.4681 3.16291 29.2234 1.90561 32.2562C0.648308 35.2889 0.000767586 38.5395 0 41.8225V66.5576V66.558V160.159C0.000511463 163.442 0.647863 166.693 1.90507 169.725C3.16228 172.758 5.0047 175.514 7.32709 177.834C9.64949 180.155 12.4063 181.995 15.4402 183.25C18.474 184.505 21.7253 185.15 25.0084 185.148H49.7241V185.156H143.345C146.626 185.156 149.876 184.51 152.908 183.254C155.939 181.998 158.694 180.157 161.015 177.837C163.335 175.516 165.176 172.762 166.431 169.73C167.687 166.698 168.333 163.449 168.333 160.167V135.424L49.7244 135.432V66.558H118.609V135.424H168.334Z" fill="url(#paint0_linear_7357_7671)"/>
</g>
<path d="M228.259 152V52.3467H255.596V152H228.259ZM274.823 152V79.9533H302.16V152H274.823ZM288.559 66.8907C283.711 66.8907 279.895 65.7684 277.112 63.524C274.419 61.2796 273.072 58.0924 273.072 53.9627C273.072 50.192 274.464 47.0947 277.247 44.6707C280.03 42.2467 283.801 41.0347 288.559 41.0347C293.407 41.0347 297.178 42.1569 299.871 44.4013C302.654 46.6458 304.046 49.8329 304.046 53.9627C304.046 57.7333 302.654 60.8307 299.871 63.2547C297.088 65.6787 293.317 66.8907 288.559 66.8907ZM321.5 152V79.9533H346.817L348.164 94.4973L342.373 96.1133C343.36 92.7018 345.111 89.6942 347.625 87.0907C350.228 84.3973 353.326 82.2876 356.917 80.7613C360.508 79.2351 364.324 78.472 368.364 78.472C373.75 78.472 378.329 79.5942 382.1 81.8387C385.87 84.0831 388.698 87.4049 390.584 91.804C392.559 96.1133 393.546 101.365 393.546 107.56V152H366.209V109.849C366.209 107.874 365.895 106.213 365.266 104.867C364.638 103.52 363.695 102.488 362.438 101.769C361.181 101.051 359.7 100.692 357.994 100.692C356.648 100.692 355.391 100.916 354.224 101.365C353.146 101.724 352.204 102.308 351.396 103.116C350.588 103.924 349.959 104.822 349.51 105.809C349.061 106.797 348.837 107.919 348.837 109.176V152H335.236C331.824 152 328.951 152 326.617 152C324.372 152 322.667 152 321.5 152ZM436.375 153.481C430.45 153.481 425.153 151.91 420.485 148.768C415.906 145.536 412.27 141.137 409.577 135.571C406.973 129.915 405.672 123.406 405.672 116.044C405.672 108.772 407.018 102.308 409.711 96.652C412.405 90.996 416.086 86.552 420.754 83.32C425.512 80.088 430.944 78.472 437.049 78.472C440.101 78.472 443.019 78.9209 445.802 79.8187C448.585 80.6267 451.099 81.8387 453.343 83.4547C455.588 84.9809 457.473 86.8213 458.999 88.976C460.616 91.0409 461.693 93.2853 462.231 95.7093L456.172 97.5947V52.3467H483.643V152H458.999L456.845 136.109L462.366 137.321C461.917 139.656 460.93 141.81 459.403 143.785C457.877 145.76 455.947 147.466 453.613 148.903C451.368 150.339 448.765 151.461 445.802 152.269C442.839 153.077 439.697 153.481 436.375 153.481ZM444.59 131.261C447.194 131.261 449.393 130.678 451.189 129.511C453.074 128.254 454.466 126.503 455.363 124.259C456.351 122.014 456.845 119.276 456.845 116.044C456.845 112.812 456.351 110.074 455.363 107.829C454.466 105.495 453.074 103.744 451.189 102.577C449.393 101.41 447.194 100.827 444.59 100.827C441.987 100.827 439.787 101.41 437.991 102.577C436.196 103.744 434.804 105.495 433.817 107.829C432.919 110.074 432.47 112.812 432.47 116.044C432.47 119.276 432.919 122.014 433.817 124.259C434.804 126.503 436.196 128.254 437.991 129.511C439.787 130.678 441.987 131.261 444.59 131.261ZM536.291 153.347C528.48 153.347 521.522 151.731 515.417 148.499C509.313 145.267 504.509 140.868 501.008 135.301C497.507 129.645 495.756 123.181 495.756 115.909C495.756 108.637 497.507 102.218 501.008 96.652C504.509 90.996 509.313 86.552 515.417 83.32C521.522 80.088 528.48 78.472 536.291 78.472C544.101 78.472 551.014 80.088 557.029 83.32C563.134 86.552 567.893 90.996 571.304 96.652C574.805 102.218 576.556 108.637 576.556 115.909C576.556 123.181 574.805 129.645 571.304 135.301C567.893 140.868 563.134 145.267 557.029 148.499C551.014 151.731 544.101 153.347 536.291 153.347ZM536.291 130.453C538.715 130.453 540.869 129.825 542.755 128.568C544.73 127.311 546.256 125.605 547.333 123.451C548.411 121.206 548.949 118.692 548.949 115.909C548.949 113.036 548.411 110.523 547.333 108.368C546.256 106.124 544.73 104.373 542.755 103.116C540.869 101.859 538.715 101.231 536.291 101.231C533.777 101.231 531.533 101.859 529.557 103.116C527.672 104.373 526.146 106.124 524.979 108.368C523.901 110.523 523.363 113.036 523.363 115.909C523.363 118.692 523.901 121.206 524.979 123.451C526.146 125.605 527.672 127.311 529.557 128.568C531.533 129.825 533.777 130.453 536.291 130.453Z" fill="#333333"/>
<defs>
<linearGradient id="paint0_linear_7357_7671" x1="84.1668" y1="16.8335" x2="84.1668" y2="185.156" gradientUnits="userSpaceOnUse">
<stop stop-color="#FC1263"/>
<stop offset="0.494792" stop-color="#7F25FB"/>
<stop offset="1" stop-color="#21C1FC"/>
</linearGradient>
<clipPath id="clip0_7357_7671">
<rect width="168.333" height="168.333" fill="white" transform="translate(0 16.8335)"/>
</clipPath>
</defs>
</svg>
