<svg width="519" height="202" viewBox="0 0 519 202" fill="none" xmlns="http://www.w3.org/2000/svg">
<g clip-path="url(#clip0_7357_7670)">
<path d="M168.333 149.751V157.924H65.2764C50.4523 157.923 36.0696 152.879 24.4914 143.622C12.9134 134.364 4.82887 121.443 1.56636 106.983C1.49826 106.676 1.43017 106.404 1.39612 106.183C1.36207 106.012 1.32801 105.842 1.31098 105.672H1.29397V105.655C1.31099 105.638 1.29397 105.638 1.29397 105.638V105.604C1.27268 105.561 1.26104 105.515 1.25991 105.468C1.25347 105.461 1.24862 105.453 1.24567 105.444C1.24273 105.435 1.24178 105.426 1.24289 105.416C0.743545 102.874 0.39108 100.304 0.187284 97.7209C0.0681037 96.0523 0 94.3498 0 92.6472C0 91.847 -2.07719e-06 91.0468 0.051075 90.2636C0.384683 83.1069 2.29756 76.1124 5.65254 69.7817C7.37867 74.045 9.39231 78.1861 11.6796 82.1764C19.6657 96.2165 30.7747 108.231 44.1476 117.29C45.8036 118.725 47.607 119.981 49.5277 121.036C49.5447 121.053 49.5447 121.053 49.5617 121.053C50.7682 121.728 52.0195 122.32 53.3074 122.823C57.1111 124.356 61.1758 125.136 65.2764 125.122H135.524V109.05C135.528 106.486 135.226 103.931 134.622 101.439V101.388C133.749 97.8303 132.281 94.4456 130.28 91.3771C129.228 89.7476 128.025 88.22 126.688 86.8142C139.13 95.6895 149.493 107.163 157.062 120.44C162.276 129.586 166.077 139.468 168.333 149.751Z" fill="#F84671"/>
<path d="M168.336 109.043V149.751C166.081 139.466 162.281 129.581 157.065 120.433C149.497 107.156 139.133 95.6826 126.692 86.8075C123.669 83.5677 120.01 80.9868 115.943 79.2261C111.877 77.4653 107.491 76.563 103.06 76.5751H48.8674C44.6072 76.5778 40.5224 78.2725 37.5116 81.2866C34.5008 84.3006 32.8103 88.3871 32.8122 92.6473C32.8066 97.3297 33.8175 101.957 35.7753 106.211C37.7331 110.464 40.5909 114.242 44.1513 117.283C30.7793 108.226 19.6702 96.2142 11.6833 82.1765C9.39604 78.1862 7.38238 74.045 5.65625 69.7818C9.81024 61.9243 16.0295 55.3492 23.644 50.765C31.2584 46.1807 39.9795 43.761 48.8674 43.7666H103.06C117.559 43.7648 131.645 48.5898 143.098 57.4807C154.551 66.3716 162.718 78.8221 166.31 92.8686C166.336 92.9223 166.354 92.9798 166.361 93.0389C167.678 98.2716 168.342 103.647 168.336 109.043Z" fill="#52D5FF"/>
</g>
<path d="M226.912 122.413V53.7333H239.032V122.413C239.032 125.645 239.391 128.294 240.109 130.359C240.917 132.334 242.129 133.77 243.745 134.668C245.361 135.476 246.932 136.015 248.459 136.284C249.985 136.553 252.005 136.688 254.519 136.688V148C244.464 148 237.326 146.07 233.107 142.209C228.977 138.349 226.912 131.75 226.912 122.413ZM280.716 148H268.865V94.672H257.822L263.209 83.36H280.716V148ZM268.326 69.8933C267.159 68.3671 266.576 66.7062 266.576 64.9107C266.576 63.1151 267.159 61.4991 268.326 60.0627C269.493 58.5364 271.289 57.7733 273.713 57.7733C276.137 57.7733 277.932 58.5364 279.1 60.0627C280.267 61.4991 280.85 63.1151 280.85 64.9107C280.85 66.7062 280.267 68.3671 279.1 69.8933C277.932 71.3298 276.137 72.048 273.713 72.048C271.289 72.048 269.493 71.3298 268.326 69.8933ZM299.39 83.36H322.687C332.653 83.36 339.79 84.8413 344.099 87.804C347.96 90.4076 350.384 93.5498 351.371 97.2307C352.449 100.822 352.987 105.58 352.987 111.505V148H341.137V111.64C341.137 110.024 341.092 108.677 341.002 107.6C340.912 106.433 340.598 104.996 340.059 103.291C339.521 101.495 338.758 100.059 337.77 98.9813C336.782 97.8142 335.346 96.8267 333.461 96.0187C331.575 95.1209 329.286 94.672 326.593 94.672H311.241V148H299.39V83.36ZM419.706 53.7333H431.826V148H400.18C390.394 148 382.449 144.903 376.344 138.708C370.239 132.424 367.186 124.523 367.186 115.007C367.186 105.67 370.329 97.8591 376.613 91.5747C382.987 85.2004 390.529 82.0133 399.237 82.0133C404.803 82.0133 410.01 83.36 414.858 86.0533V98.1733C410.369 94.9413 405.162 93.3253 399.237 93.3253C393.85 93.3253 389.272 95.3453 385.501 99.3853C381.82 103.336 379.98 108.543 379.98 115.007C379.98 121.56 381.73 126.812 385.232 130.763C388.823 134.713 393.805 136.688 400.18 136.688H419.706V53.7333ZM455.388 91.844C461.672 85.2902 469.528 82.0133 478.954 82.0133C483.533 82.0133 487.797 82.9111 491.748 84.7067C495.788 86.4124 499.289 88.7916 502.252 91.844C505.304 94.8964 507.683 98.4876 509.389 102.617C511.095 106.657 511.948 111.012 511.948 115.68C511.948 120.348 511.095 124.748 509.389 128.877C507.773 132.917 505.484 136.464 502.521 139.516C499.558 142.568 496.057 144.992 492.017 146.788C487.977 148.494 483.623 149.347 478.954 149.347C474.196 149.347 469.797 148.494 465.757 146.788C461.807 144.992 458.35 142.568 455.388 139.516C452.425 136.464 450.091 132.917 448.385 128.877C446.769 124.748 445.961 120.348 445.961 115.68C445.961 106.164 449.103 98.2182 455.388 91.844ZM478.954 93.3253C472.67 93.3253 467.597 95.3902 463.737 99.52C459.966 103.65 458.081 109.036 458.081 115.68C458.081 122.324 459.966 127.71 463.737 131.84C467.597 135.97 472.67 138.035 478.954 138.035C485.329 138.035 490.401 135.97 494.172 131.84C497.942 127.62 499.828 122.234 499.828 115.68C499.828 109.126 497.942 103.784 494.172 99.6547C490.401 95.4351 485.329 93.3253 478.954 93.3253Z" fill="#333333"/>
<defs>
<clipPath id="clip0_7357_7670">
<rect width="168.333" height="168.333" fill="white" transform="translate(0 16.8335)"/>
</clipPath>
</defs>
</svg>
