<svg width="567" height="202" viewBox="0 0 567 202" fill="none" xmlns="http://www.w3.org/2000/svg">
<g clip-path="url(#clip0_7357_7669)">
<path d="M154.577 117.087C154.577 117.474 154.554 117.86 154.554 118.226C154.532 118.477 154.532 118.704 154.509 118.957C154.463 119.98 154.372 121.006 154.281 122.032V122.26C154.213 122.717 154.168 123.194 154.122 123.652C154.099 123.811 154.099 123.947 154.077 124.107C153.986 124.791 153.895 125.474 153.781 126.158C153.782 126.171 153.781 126.183 153.777 126.195C153.773 126.207 153.767 126.218 153.758 126.227C153.599 127.366 153.392 128.483 153.164 129.6C153.156 129.609 153.149 129.62 153.145 129.631C153.141 129.643 153.14 129.656 153.142 129.668C153.051 130.169 152.935 130.649 152.823 131.149C152.505 132.493 152.161 133.838 151.775 135.159C151.502 136.072 151.229 136.984 150.908 137.896C150.701 137.275 150.494 136.655 150.271 136.072C150.112 135.639 149.951 135.207 149.791 134.795V134.773C149.767 134.684 149.729 134.599 149.677 134.522C149.632 134.431 149.609 134.34 149.564 134.249C149.336 133.629 149.086 133.042 148.811 132.448C148.718 132.199 148.612 131.955 148.492 131.718V131.695C148.463 131.622 148.425 131.552 148.378 131.488L148.356 131.466C148.35 131.375 148.318 131.288 148.265 131.215C148.014 130.647 147.738 130.078 147.437 129.507C147.378 129.364 147.309 129.226 147.231 129.093C147.179 128.975 147.118 128.861 147.049 128.752C146.912 128.433 146.753 128.131 146.594 127.84L145.973 126.746C145.882 126.564 145.791 126.382 145.677 126.2C145.7 126.177 145.677 126.177 145.677 126.177C145.586 125.995 145.471 125.811 145.359 125.629C144.97 124.901 144.531 124.193 144.081 123.486C143.557 122.622 143.01 121.778 142.44 120.957C142.334 120.824 142.236 120.686 142.145 120.543C141.619 119.79 141.073 119.039 140.525 118.309C140.047 117.67 139.545 117.056 139.044 116.448C138.794 116.129 138.544 115.811 138.269 115.513C138.109 115.306 137.928 115.099 137.746 114.892C137.332 114.392 136.879 113.889 136.424 113.389C136.347 113.292 136.263 113.201 136.173 113.116C135.535 112.408 134.873 111.724 134.19 111.047L84.9028 61.7251L35.5826 111.039C34.6023 112.017 33.6674 113.021 32.7553 114.024C32.232 114.617 31.7087 115.232 31.2061 115.848C31.0241 116.055 30.8649 116.262 30.6829 116.468C30.0624 117.221 29.475 117.997 28.9041 118.77C28.7449 118.998 28.5856 119.205 28.4264 119.432C28.1285 119.819 27.8555 120.231 27.5598 120.64C27.3322 120.959 27.1275 121.277 26.9207 121.598C26.8069 121.744 26.7006 121.896 26.6021 122.053C26.0106 122.965 25.417 123.9 24.871 124.835C24.5959 125.29 24.3456 125.722 24.0954 126.179C24.0559 126.27 24.0021 126.355 23.9361 126.429C23.6859 126.884 23.4563 127.364 23.206 127.819C22.8875 128.413 22.5855 129.004 22.2939 129.598C22.2349 129.698 22.189 129.805 22.1574 129.916C22.0723 130.071 21.9964 130.231 21.9299 130.394C21.875 130.481 21.8292 130.573 21.7934 130.669C21.7024 130.851 21.6114 131.01 21.5431 131.17C21.3363 131.602 21.1563 132.014 20.995 132.446C20.8126 132.808 20.653 133.181 20.5172 133.563C20.449 133.699 20.4035 133.813 20.3352 133.95C20.3352 133.972 20.3125 133.995 20.3125 134.018C19.7871 135.319 19.3094 136.595 18.8998 137.894C18.5793 136.982 18.3063 136.07 18.0332 135.157C17.8512 134.537 17.6672 133.916 17.5079 133.312C17.3486 132.709 17.1666 132.036 17.0301 131.375C16.8481 130.646 16.6882 129.917 16.5503 129.186C16.391 128.458 16.2545 127.728 16.1366 126.975C16.0187 126.222 15.8864 125.494 15.7954 124.742C15.7043 124.121 15.6361 123.488 15.5678 122.88C15.5451 122.653 15.5223 122.446 15.4996 122.218C15.4313 121.581 15.3838 120.919 15.3383 120.282V120.26C15.27 119.575 15.2473 118.913 15.2245 118.231C15.179 117.296 15.1562 116.384 15.1562 115.449C15.1562 114.127 15.2018 112.783 15.2948 111.461C16.2194 94.3622 23.4456 78.2122 35.5785 66.1285L84.8306 16.9033L84.8987 16.833L134.198 66.1326C137.817 69.7362 141.02 73.7344 143.748 78.0521C143.748 78.0749 143.77 78.0976 143.77 78.1204C150.149 88.1207 153.839 99.5982 154.482 111.442C154.6 113.327 154.645 115.194 154.577 117.087Z" fill="#CFEC1E"/>
<path d="M133.22 165.679C121.812 176.668 106.999 183.44 91.2252 184.878C75.4508 186.316 59.6574 182.334 46.4512 173.588C46.3602 173.54 46.2919 173.495 46.2444 173.472C42.7876 171.171 39.5458 168.563 36.5586 165.679L38.449 163.786L84.8985 117.359L131.6 164.059V164.082L131.76 164.243L133.22 165.679Z" fill="#9654BF"/>
<path d="M150.907 137.895C148.601 144.752 145.233 151.204 140.925 157.016C140.511 157.565 140.098 158.111 139.649 158.659C139.235 159.182 138.805 159.707 138.371 160.231C137.483 161.265 136.594 162.282 135.637 163.285C135.181 163.786 134.702 164.264 134.201 164.766C133.905 165.093 133.584 165.398 133.244 165.678H133.221L131.773 164.243L131.614 164.082V164.059L84.9119 117.359L38.452 163.78L36.5616 165.672C36.2189 165.386 35.8915 165.081 35.5812 164.76C28.0096 157.22 22.2978 148.02 18.8984 137.889C19.3121 136.59 19.7857 135.314 20.3111 134.013C20.3111 133.99 20.3338 133.968 20.3338 133.945C20.4021 133.808 20.4476 133.695 20.5159 133.558C20.6516 133.176 20.8112 132.803 20.9936 132.441C21.359 131.597 21.7465 130.754 22.156 129.912C22.4766 129.204 22.8406 128.499 23.2046 127.814C23.7299 126.811 24.276 125.808 24.8696 124.83C25.4156 123.895 26.0092 122.968 26.6007 122.048C26.6462 122.003 26.669 121.934 26.7145 121.889C27.2626 121.045 27.8541 120.201 28.4705 119.359C28.607 119.152 28.7435 118.97 28.9027 118.766C29.5232 117.938 30.1561 117.125 30.7952 116.327L30.8407 116.282C31.4543 115.529 32.092 114.777 32.7539 114.025C33.666 113.022 34.6009 112.019 35.5812 111.041L84.9015 61.7183L134.201 111.039C140.033 116.864 144.787 123.678 148.241 131.163C148.309 131.258 148.355 131.367 148.377 131.481C148.424 131.545 148.462 131.615 148.491 131.688V131.711C148.61 131.948 148.717 132.192 148.809 132.441C149.084 133.035 149.335 133.626 149.562 134.243C149.652 134.411 149.728 134.586 149.79 134.766V134.789C149.949 135.202 150.11 135.632 150.27 136.065C150.497 136.665 150.702 137.279 150.907 137.895Z" fill="#45B7F7"/>
</g>
<path d="M250.209 48.3467V148H227.181V48.3467H250.209ZM278.479 65.0453C274.439 65.0453 271.117 63.8782 268.514 61.544C266 59.12 264.743 56.1573 264.743 52.656C264.743 49.0649 266 46.1022 268.514 43.768C271.117 41.344 274.439 40.132 278.479 40.132C282.429 40.132 285.661 41.344 288.175 43.768C290.778 46.1022 292.08 49.0649 292.08 52.656C292.08 56.1573 290.778 59.12 288.175 61.544C285.661 63.8782 282.429 65.0453 278.479 65.0453ZM289.926 72.856V148H266.898V72.856H289.926ZM352.4 72.048C361.199 72.048 368.201 74.9209 373.408 80.6667C378.705 86.3227 381.354 94.1333 381.354 104.099V148H358.46V107.196C358.46 102.168 357.159 98.2631 354.555 95.48C351.951 92.6969 348.45 91.3053 344.051 91.3053C339.652 91.3053 336.151 92.6969 333.547 95.48C330.943 98.2631 329.642 102.168 329.642 107.196V148H306.614V72.856H329.642V82.8213C331.976 79.4996 335.118 76.896 339.068 75.0107C343.019 73.0356 347.463 72.048 352.4 72.048ZM392.777 110.293C392.777 102.572 394.214 95.7942 397.086 89.9587C400.049 84.1231 404.044 79.6342 409.072 76.492C414.099 73.3498 419.71 71.7787 425.905 71.7787C430.843 71.7787 435.332 72.8111 439.372 74.876C443.502 76.9409 446.734 79.724 449.068 83.2253V48.3467H472.096V148H449.068V137.227C446.913 140.818 443.816 143.691 439.776 145.845C435.826 148 431.202 149.077 425.905 149.077C419.71 149.077 414.099 147.506 409.072 144.364C404.044 141.132 400.049 136.598 397.086 130.763C394.214 124.837 392.777 118.014 392.777 110.293ZM449.068 110.428C449.068 104.682 447.452 100.148 444.22 96.8267C441.078 93.5049 437.217 91.844 432.638 91.844C428.06 91.844 424.154 93.5049 420.923 96.8267C417.78 100.059 416.209 104.548 416.209 110.293C416.209 116.039 417.78 120.618 420.923 124.029C424.154 127.351 428.06 129.012 432.638 129.012C437.217 129.012 441.078 127.351 444.22 124.029C447.452 120.708 449.068 116.174 449.068 110.428ZM522.961 149.077C515.599 149.077 508.956 147.506 503.03 144.364C497.195 141.222 492.571 136.733 489.16 130.897C485.838 125.062 484.177 118.239 484.177 110.428C484.177 102.707 485.883 95.9289 489.294 90.0933C492.706 84.168 497.374 79.6342 503.3 76.492C509.225 73.3498 515.868 71.7787 523.23 71.7787C530.592 71.7787 537.236 73.3498 543.161 76.492C549.086 79.6342 553.755 84.168 557.166 90.0933C560.578 95.9289 562.284 102.707 562.284 110.428C562.284 118.149 560.533 124.972 557.032 130.897C553.62 136.733 548.907 141.222 542.892 144.364C536.966 147.506 530.323 149.077 522.961 149.077ZM522.961 129.147C527.36 129.147 531.086 127.531 534.138 124.299C537.28 121.067 538.852 116.443 538.852 110.428C538.852 104.413 537.325 99.7893 534.273 96.5573C531.31 93.3253 527.629 91.7093 523.23 91.7093C518.741 91.7093 515.016 93.3253 512.053 96.5573C509.09 99.6996 507.609 104.323 507.609 110.428C507.609 116.443 509.045 121.067 511.918 124.299C514.881 127.531 518.562 129.147 522.961 129.147Z" fill="#333333"/>
<defs>
<clipPath id="clip0_7357_7669">
<rect width="168.333" height="168.333" fill="white" transform="translate(0 16.8335)"/>
</clipPath>
</defs>
</svg>
