<svg width="561" height="202" viewBox="0 0 561 202" fill="none" xmlns="http://www.w3.org/2000/svg">
<g clip-path="url(#clip0_7357_7668)">
<path d="M133.79 65.8542C136.614 68.8609 139.168 72.111 141.42 75.5666C149.091 87.293 153.111 101.031 152.972 115.043C152.833 129.055 148.54 142.71 140.638 154.282C132.736 165.853 121.579 174.821 108.579 180.05C95.5786 185.279 81.3193 186.534 67.6055 183.657V183.626L67.6372 183.53C67.6521 183.515 67.6372 183.499 67.6521 183.484C67.6353 183.435 67.6521 183.42 67.6521 183.389L73.1866 157.013L96.6459 44.9795L96.6608 44.9963C97.0863 45.0747 97.4968 45.1698 97.9222 45.2799C98.8851 45.4852 99.831 45.7371 100.792 46.0058C101.691 46.2409 102.574 46.4928 103.457 46.7764C104.763 47.172 106.069 47.6292 107.334 48.133C107.918 48.3383 108.486 48.559 109.038 48.7954C109.874 49.1257 110.661 49.4728 111.48 49.8516C112.081 50.1035 112.663 50.4114 113.248 50.7025C113.705 50.9077 114.145 51.1298 114.602 51.3649C116.369 52.2792 118.103 53.257 119.806 54.3299C124.952 57.543 129.653 61.4175 133.79 65.8542Z" fill="#FB5490"/>
<path d="M102.24 18.3144V18.3461C102.225 18.361 102.24 18.4095 102.208 18.4394C102.219 18.487 102.214 18.5369 102.193 18.5812L96.659 44.9904L73.185 157.007C72.7427 156.912 72.3322 156.821 71.9068 156.707C54.017 152.661 38.4115 141.796 28.4088 126.422C27.0854 124.393 25.8648 122.298 24.7515 120.147C24.7515 120.147 24.7347 120.098 24.7049 120.035C24.6418 119.946 24.5887 119.851 24.5463 119.751C18.5575 107.984 15.9782 94.7772 17.0997 81.6217C18.2212 68.4663 22.9988 55.8864 30.8929 45.3032C38.7869 34.7198 49.4831 26.5547 61.7732 21.7298C74.0631 16.905 87.4575 15.6128 100.443 17.999C100.507 17.999 100.553 18.014 100.585 18.014C101.137 18.0942 101.69 18.2043 102.24 18.3144Z" fill="#1D81F7"/>
</g>
<path d="M231.26 90.3711C231.786 84.3655 232.202 78.4256 232.509 72.5514C232.86 66.6773 233.232 60.6497 233.627 54.4688C233.715 53.0221 233.846 52.0358 234.021 51.5098C234.241 50.9399 234.745 50.5673 235.534 50.3919C239.611 49.6467 243.687 48.9015 247.764 48.1563C251.885 47.3672 256.006 46.337 260.126 45.0658C260.258 45.0219 260.455 45 260.718 45C261.2 45 261.441 45.2192 261.441 45.6576L252.893 139.556V140.674C252.893 141.068 252.74 141.397 252.433 141.66C252.126 141.879 251.403 142.142 250.263 142.449L233.035 148.762C232.553 148.981 231.917 149.2 231.128 149.419C230.339 149.682 229.572 149.814 228.827 149.814C228.213 149.814 227.665 149.66 227.183 149.354C226.745 149.047 226.525 148.521 226.525 147.775V147.381C226.876 142.953 227.205 138.635 227.512 134.427C227.862 130.175 228.213 125.791 228.564 121.276C228.958 116.761 229.375 111.983 229.813 106.941C230.252 101.9 230.734 96.3767 231.26 90.3711ZM269.332 118.12C269.902 112.114 270.472 106.174 271.042 100.3C271.612 94.426 272.116 88.3984 272.554 82.2175C272.642 80.7708 272.773 79.7845 272.949 79.2585C273.168 78.6886 273.672 78.316 274.461 78.1406C278.187 77.3954 282.089 76.6283 286.165 75.8392C290.242 75.0063 294.187 73.9542 298.001 72.6829C298.133 72.6391 298.33 72.6172 298.593 72.6172C299.075 72.6172 299.316 72.7925 299.316 73.1432L293.398 137.189C293.267 138.635 293.113 139.644 292.938 140.214C292.763 140.74 292.281 141.09 291.492 141.266C287.765 142.405 283.995 143.677 280.182 145.079C276.368 146.482 272.335 147.907 268.083 149.354C267.951 149.397 267.754 149.419 267.491 149.419C267.009 149.419 266.768 149.2 266.768 148.762C266.768 148.718 266.811 148.126 266.899 146.986C266.987 145.847 267.096 144.378 267.228 142.581C267.403 140.783 267.579 138.767 267.754 136.531C267.929 134.296 268.105 132.06 268.28 129.824C268.499 127.589 268.696 125.441 268.872 123.38C269.047 121.32 269.201 119.566 269.332 118.12ZM274.264 65.6471C274.395 63.7622 274.483 62.3155 274.527 61.3073C274.614 60.2991 274.68 59.5538 274.724 59.0716C274.768 58.5456 274.79 58.2168 274.79 58.0853C274.79 57.9538 274.79 57.8661 274.79 57.8223C274.834 57.7346 274.855 57.6031 274.855 57.4277C274.899 57.2086 274.943 56.7921 274.987 56.1784C275.031 55.5208 275.097 54.5783 275.184 53.3509C275.272 52.1235 275.403 50.4358 275.579 48.2878C275.666 46.8412 275.798 45.8548 275.973 45.3288C276.192 44.7589 276.697 44.3863 277.486 44.2109C281.212 43.4657 285.113 42.6986 289.19 41.9095C293.267 41.0766 297.212 40.0245 301.026 38.7533C301.158 38.7094 301.355 38.6875 301.618 38.6875C301.749 38.9505 301.925 39.1259 302.144 39.2135L302.341 39.3451L300.895 57.362C300.763 58.8086 300.588 59.8168 300.368 60.3867C300.193 60.9566 299.733 61.3073 298.988 61.4388C295.261 62.1402 291.492 62.9073 287.678 63.7402C283.864 64.5731 279.831 65.406 275.579 66.2389C275.447 66.2828 275.25 66.3047 274.987 66.3047C274.505 66.3047 274.264 66.0855 274.264 65.6471ZM362.441 148.367C361.959 148.499 361.324 148.696 360.534 148.959C359.745 149.266 358.978 149.419 358.233 149.419C357.619 149.419 357.071 149.266 356.589 148.959C356.151 148.652 355.932 148.126 355.932 147.381V146.986C356.195 144.619 356.414 142.625 356.589 141.003C356.765 139.337 356.918 137.846 357.049 136.531C357.225 135.172 357.356 133.835 357.444 132.52C357.576 131.161 357.729 129.605 357.904 127.852C358.08 126.054 358.277 123.95 358.496 121.539C358.759 119.084 359.066 116.038 359.417 112.399C359.636 110.163 359.833 107.884 360.008 105.561C360.184 103.237 360.271 101.089 360.271 99.1165C360.271 97.8014 360.162 96.5959 359.943 95.5C359.767 94.3602 359.417 93.3958 358.891 92.6068C358.408 91.7739 357.729 91.1382 356.852 90.6999C355.975 90.2615 354.858 90.0423 353.499 90.0423C352.49 90.0423 351.088 90.2615 349.29 90.6999C347.537 91.1382 345.783 91.8615 344.03 92.8698C342.276 93.878 340.72 95.2151 339.361 96.8809C338.002 98.5028 337.235 100.519 337.06 102.93C336.797 106.174 336.556 108.958 336.337 111.281C336.117 113.561 335.92 115.512 335.745 117.133C335.569 118.712 335.416 120.005 335.284 121.013C335.197 122.021 335.131 122.876 335.087 123.577C335.043 123.753 334.978 124.235 334.89 125.024C334.802 125.813 334.693 126.756 334.561 127.852C334.474 128.947 334.364 130.109 334.232 131.337C334.145 132.564 334.035 133.726 333.904 134.822C333.816 135.918 333.728 136.86 333.641 137.649C333.597 138.438 333.575 138.92 333.575 139.096C333.575 139.446 333.575 139.753 333.575 140.016C333.619 140.235 333.641 140.455 333.641 140.674C333.641 141.025 333.465 141.331 333.115 141.594C332.808 141.814 332.084 142.077 330.945 142.383L313.52 148.367C313.037 148.543 312.402 148.762 311.613 149.025C310.824 149.288 310.056 149.419 309.311 149.419C308.697 149.419 308.15 149.266 307.667 148.959C307.229 148.652 307.01 148.126 307.01 147.381L312.993 80.179C313.125 78.7324 313.278 77.7461 313.454 77.2201C313.673 76.6502 314.177 76.2776 314.966 76.1022C318.955 75.3132 323.054 74.5241 327.262 73.735C331.471 72.9021 335.569 71.85 339.559 70.5788C339.909 70.5788 340.107 70.6445 340.15 70.776C340.238 70.8637 340.282 71.0171 340.282 71.2363C340.282 71.324 340.26 71.4555 340.216 71.6309C340.216 71.8062 340.15 72.2007 340.019 72.8145C339.931 73.4282 339.778 74.3707 339.559 75.6419C339.383 76.8694 339.12 78.6009 338.77 80.8366C341.794 79.0831 344.622 77.6803 347.252 76.6283C349.926 75.5323 352.425 74.6994 354.748 74.1296C357.115 73.5158 359.329 73.1213 361.389 72.946C363.45 72.7268 365.378 72.6172 367.176 72.6172C373.357 72.6172 377.85 74.5022 380.656 78.2721C383.461 81.9983 384.864 87.6094 384.864 95.1055C384.864 96.1576 384.842 97.2535 384.798 98.3932C384.754 99.4892 384.667 100.629 384.535 101.813L381.51 130.087C381.291 131.928 381.16 133.638 381.116 135.216C381.072 136.75 381.05 138.548 381.05 140.608C381.05 140.959 381.05 141.266 381.05 141.529C381.094 141.748 381.116 141.945 381.116 142.12C381.116 142.515 380.941 142.822 380.59 143.041C380.283 143.26 379.56 143.545 378.42 143.896L362.441 148.367ZM444.57 108.585C444.701 107.183 444.833 105.714 444.964 104.18C445.14 102.645 445.337 101.045 445.556 99.3796C444.548 96.7494 443.123 94.6233 441.282 93.0013C439.441 91.3355 437.139 90.5026 434.378 90.5026C431.66 90.5026 429.358 91.2917 427.473 92.8698C425.588 94.4041 424.076 96.311 422.936 98.5905C421.796 100.87 420.964 103.281 420.437 105.824C419.955 108.322 419.714 110.536 419.714 112.465C419.714 114.832 419.846 117.177 420.109 119.501C420.416 121.824 420.876 123.928 421.49 125.813C422.147 127.698 423.002 129.232 424.054 130.416C425.106 131.556 426.421 132.126 427.999 132.126C431.857 131.994 434.991 131.117 437.402 129.495C439.813 127.873 441.742 125.901 443.189 123.577L444.57 108.585ZM467.518 139.359C467.518 139.446 467.496 139.556 467.452 139.688C467.452 139.775 467.452 139.863 467.452 139.951C467.452 140.17 467.452 140.345 467.452 140.477C467.496 140.608 467.518 140.74 467.518 140.871C467.518 141.266 467.365 141.594 467.058 141.857C466.795 142.077 466.072 142.34 464.888 142.646L447.266 148.367C446.783 148.543 446.148 148.762 445.359 149.025C444.57 149.288 443.802 149.419 443.057 149.419C442.444 149.419 441.896 149.266 441.413 148.959C440.975 148.652 440.756 148.082 440.756 147.249C440.756 146.46 440.756 145.825 440.756 145.342C440.8 144.86 440.822 144.422 440.822 144.027C440.865 143.589 440.909 143.129 440.953 142.646C441.041 142.164 441.128 141.529 441.216 140.74C437.928 143.37 434.531 145.474 431.024 147.052C427.561 148.63 423.901 149.419 420.043 149.419C415.835 149.419 412.087 148.411 408.799 146.395C405.555 144.422 402.815 141.77 400.579 138.438C398.344 135.063 396.634 131.227 395.451 126.931C394.311 122.591 393.741 118.076 393.741 113.385C393.741 107.292 394.727 101.747 396.7 96.7494C398.716 91.7081 401.434 87.4121 404.853 83.8613C408.273 80.2667 412.262 77.505 416.821 75.5762C421.38 73.6035 426.224 72.6172 431.353 72.6172C434.115 72.6172 436.745 73.3405 439.243 74.7871C441.786 76.2337 444.175 78.0968 446.411 80.3763C446.542 78.2283 446.696 75.905 446.871 73.4063C447.046 70.8637 447.222 68.2993 447.397 65.7129C447.572 63.0827 447.748 60.4963 447.923 57.9538C448.099 55.4112 448.252 53.0879 448.383 50.9837C448.383 50.5892 448.515 50.2823 448.778 50.0632C449.085 49.8001 449.83 49.5152 451.014 49.2083L469.491 44.8027C469.973 44.7151 470.609 44.5178 471.398 44.2109C472.187 43.9041 472.954 43.7507 473.699 43.7507C474.269 43.7507 474.795 43.8822 475.277 44.1452C475.803 44.4082 476.066 44.9123 476.066 45.6576C476.066 45.7452 476.044 45.9425 476.001 46.2494C476.001 46.5124 476.001 46.6877 476.001 46.7754L467.518 139.359ZM518.413 149.419C512.232 149.419 506.796 148.411 502.105 146.395C497.459 144.378 493.557 141.704 490.401 138.372C487.245 134.997 484.878 131.139 483.299 126.799C481.721 122.416 480.932 117.879 480.932 113.188C480.932 108.498 481.699 104.048 483.234 99.8398C484.768 95.5877 486.916 91.7958 489.678 88.4642C492.439 85.0888 495.749 82.2832 499.607 80.0475C503.464 77.768 507.717 76.2337 512.363 75.4447C513.065 75.4008 513.415 75.2474 513.415 74.9844C513.415 74.5022 513.35 74.0638 513.218 73.6693C513.13 73.2309 513.087 72.8583 513.087 72.5514C513.087 72.0692 513.174 71.7405 513.35 71.5651C513.525 71.3898 513.722 71.3021 513.941 71.3021C522.314 71.3021 529.438 72.2665 535.312 74.1953C541.186 76.0803 545.964 78.6667 549.646 81.9544C553.329 85.2422 556.003 89.1217 557.669 93.5931C559.334 98.0645 560.167 102.865 560.167 107.993C560.167 114.525 559.071 120.355 556.88 125.484C554.688 130.613 551.685 134.953 547.871 138.504C544.101 142.055 539.674 144.751 534.589 146.592C529.547 148.477 524.155 149.419 518.413 149.419ZM506.248 112.465C506.248 114.832 506.489 117.177 506.971 119.501C507.497 121.824 508.33 123.928 509.47 125.813C510.654 127.698 512.188 129.232 514.073 130.416C515.958 131.556 518.303 132.126 521.109 132.126C523.125 132.038 524.879 131.6 526.369 130.811C527.903 129.978 529.219 128.926 530.314 127.654C531.41 126.339 532.309 124.871 533.01 123.249C533.756 121.627 534.325 119.961 534.72 118.251C535.158 116.498 535.465 114.788 535.641 113.122C535.816 111.457 535.904 109.944 535.904 108.585C535.904 106.306 535.553 104.07 534.852 101.878C534.194 99.6864 533.208 97.7576 531.893 96.0918C530.577 94.426 528.934 93.089 526.961 92.0807C525.032 91.0286 522.796 90.5026 520.254 90.5026C517.624 90.5026 515.41 91.2917 513.613 92.8698C511.815 94.4041 510.369 96.311 509.273 98.5905C508.221 100.87 507.454 103.281 506.971 105.824C506.489 108.322 506.248 110.536 506.248 112.465Z" fill="#333333"/>
<defs>
<clipPath id="clip0_7357_7668">
<rect width="168.333" height="168.333" fill="white" transform="translate(0 16.8335)"/>
</clipPath>
</defs>
</svg>
